ISO-10303-21;
HEADER;
FILE_DESCRIPTION (( 'STEP AP203' ),
    '1' );
FILE_NAME ('Table_Default_sldprt.STEP',
    '2020-04-06T12:53:51',
    ( '' ),
    ( '' ),
    'SwSTEP 2.0',
    'SolidWorks 2018',
    '' );
FILE_SCHEMA (( 'CONFIG_CONTROL_DESIGN' ));
ENDSEC;

DATA;
#1 = DIRECTION ( 'NONE',  ( 0.0000000000000000000, 0.0000000000000000000, -1.000000000000000000 ) ) ;
#2 = ORIENTED_EDGE ( 'NONE', *, *, #387, .T. ) ;
#3 = DIRECTION ( 'NONE',  ( -1.000000000000000000, -0.0000000000000000000, -0.0000000000000000000 ) ) ;
#4 = CIRCLE ( 'NONE', #109, 3.299999999999969624 ) ;
#5 = AXIS2_PLACEMENT_3D ( 'NONE', #341, #530, #730 ) ;
#6 = CIRCLE ( 'NONE', #290, 3.299999999999969624 ) ;
#7 = ORIENTED_EDGE ( 'NONE', *, *, #252, .F. ) ;
#8 = EDGE_CURVE ( 'NONE', #807, #420, #76, .T. ) ;
#9 = DIRECTION ( 'NONE',  ( -0.0000000000000000000, -1.000000000000000000, -0.0000000000000000000 ) ) ;
#10 = DIRECTION ( 'NONE',  ( -0.0000000000000000000, -1.000000000000000000, -0.0000000000000000000 ) ) ;
#11 = CALENDAR_DATE ( 2020, 6, 4 ) ;
#12 = FACE_OUTER_BOUND ( 'NONE', #749, .T. ) ;
#13 = VECTOR ( 'NONE', #434, 1000.000000000000000 ) ;
#14 = DIRECTION ( 'NONE',  ( 0.0000000000000000000, 0.0000000000000000000, -1.000000000000000000 ) ) ;
#15 = VERTEX_POINT ( 'NONE', #606 ) ;
#16 = CARTESIAN_POINT ( 'NONE',  ( 551.9999999999976126, 0.0000000000000000000, -14.69999999999976836 ) ) ;
#17 = VERTEX_POINT ( 'NONE', #671 ) ;
#18 = ORIENTED_EDGE ( 'NONE', *, *, #278, .T. ) ;
#19 = LINE ( 'NONE', #388, #716 ) ;
#20 = FACE_BOUND ( 'NONE', #186, .T. ) ;
#21 = EDGE_CURVE ( 'NONE', #118, #258, #782, .T. ) ;
#22 = CIRCLE ( 'NONE', #699, 3.299999999999969624 ) ;
#23 = CC_DESIGN_SECURITY_CLASSIFICATION ( #507, ( #255 ) ) ;
#24 = DIRECTION ( 'NONE',  ( -0.0000000000000000000, -1.000000000000000000, -0.0000000000000000000 ) ) ;
#25 = EDGE_LOOP ( 'NONE', ( #367, #459, #670, #614 ) ) ;
#26 = DIRECTION ( 'NONE',  ( -1.000000000000000000, 5.551115123125800846E-15, 0.0000000000000000000 ) ) ;
#27 = AXIS2_PLACEMENT_3D ( 'NONE', #471, #292, #544 ) ;
#28 = CYLINDRICAL_SURFACE ( 'NONE', #678, 3.299999999999969624 ) ;
#29 = EDGE_LOOP ( 'NONE', ( #374, #247, #604, #2 ) ) ;
#30 = FACE_BOUND ( 'NONE', #571, .T. ) ;
#31 = DIRECTION ( 'NONE',  ( 0.0000000000000000000, 0.0000000000000000000, -1.000000000000000000 ) ) ;
#32 = AXIS2_PLACEMENT_3D ( 'NONE', #628, #495, #814 ) ;
#33 = EDGE_LOOP ( 'NONE', ( #355, #55, #407, #818 ) ) ;
#34 = VERTEX_POINT ( 'NONE', #284 ) ;
#35 = CARTESIAN_POINT ( 'NONE',  ( 551.9999999999976126, 0.0000000000000000000, -21.29999999999970939 ) ) ;
#36 = VERTEX_POINT ( 'NONE', #217 ) ;
#37 = DIRECTION ( 'NONE',  ( -0.0000000000000000000, -1.000000000000000000, -0.0000000000000000000 ) ) ;
#38 = EDGE_LOOP ( 'NONE', ( #276, #306 ) ) ;
#39 = EDGE_CURVE ( 'NONE', #774, #535, #649, .T. ) ;
#40 = CARTESIAN_POINT ( 'NONE',  ( 551.9999999999973852, 0.0000000000000000000, -45.29999999999972715 ) ) ;
#41 = CC_DESIGN_PERSON_AND_ORGANIZATION_ASSIGNMENT ( #369, #669, ( #507 ) ) ;
#42 = VECTOR ( 'NONE', #657, 1000.000000000000000 ) ;
#43 = VECTOR ( 'NONE', #114, 1000.000000000000000 ) ;
#44 = VECTOR ( 'NONE', #233, 1000.000000000000000 ) ;
#45 = CARTESIAN_POINT ( 'NONE',  ( 578.9999999999974989, 0.0000000000000000000, -41.99999999999975842 ) ) ;
#46 = AXIS2_PLACEMENT_3D ( 'NONE', #234, #126, #748 ) ;
#47 = CARTESIAN_POINT ( 'NONE',  ( -650.0000000000001137, 19.99999999999993605, -350.0000000000000000 ) ) ;
#48 = EDGE_CURVE ( 'NONE', #617, #215, #773, .T. ) ;
#49 = CARTESIAN_POINT ( 'NONE',  ( -552.0000000000018190, 0.0000000000000000000, -14.69999999999999041 ) ) ;
#50 = PERSON_AND_ORGANIZATION ( #137, #64 ) ;
#51 = CARTESIAN_POINT ( 'NONE',  ( -579.0000000000018190, 19.99999999999993605, -17.99999999999996092 ) ) ;
#52 = CIRCLE ( 'NONE', #777, 3.299999999999969624 ) ;
#53 = VECTOR ( 'NONE', #702, 1000.000000000000000 ) ;
#54 = CARTESIAN_POINT ( 'NONE',  ( -579.0000000000018190, 0.0000000000000000000, -38.70000000000000995 ) ) ;
#55 = ORIENTED_EDGE ( 'NONE', *, *, #708, .T. ) ;
#56 = DIRECTION ( 'NONE',  ( -0.0000000000000000000, -1.000000000000000000, -0.0000000000000000000 ) ) ;
#57 = AXIS2_PLACEMENT_3D ( 'NONE', #81, #340, #728 ) ;
#58 = VERTEX_POINT ( 'NONE', #476 ) ;
#59 = VERTEX_POINT ( 'NONE', #540 ) ;
#60 = CARTESIAN_POINT ( 'NONE',  ( 551.9999999999973852, 0.0000000000000000000, -41.99999999999975842 ) ) ;
#61 = ADVANCED_FACE ( 'NONE', ( #155 ), #813, .F. ) ;
#62 = DIRECTION ( 'NONE',  ( -0.0000000000000000000, -1.000000000000000000, -0.0000000000000000000 ) ) ;
#63 = AXIS2_PLACEMENT_3D ( 'NONE', #564, #574, #428 ) ;
#64 = ORGANIZATION ( 'UNSPECIFIED', 'UNSPECIFIED', '' ) ;
#65 = CARTESIAN_POINT ( 'NONE',  ( -579.0000000000018190, 0.0000000000000000000, -21.29999999999992966 ) ) ;
#66 = CIRCLE ( 'NONE', #409, 3.299999999999969624 ) ;
#67 = VECTOR ( 'NONE', #482, 1000.000000000000000 ) ;
#68 = EDGE_CURVE ( 'NONE', #281, #59, #465, .T. ) ;
#69 = CARTESIAN_POINT ( 'NONE',  ( -579.0000000000018190, 0.0000000000000000000, -14.69999999999999041 ) ) ;
#70 = EDGE_LOOP ( 'NONE', ( #693, #462, #791, #663 ) ) ;
#71 = CARTESIAN_POINT ( 'NONE',  ( 578.9999999999974989, 0.0000000000000000000, -41.99999999999975842 ) ) ;
#72 = COORDINATED_UNIVERSAL_TIME_OFFSET ( 1, 0, .AHEAD. ) ;
#73 = EDGE_CURVE ( 'NONE', #535, #15, #323, .T. ) ;
#74 = CARTESIAN_POINT ( 'NONE',  ( -579.0000000000018190, 0.0000000000000000000, -17.99999999999996092 ) ) ;
#75 = LINE ( 'NONE', #615, #623 ) ;
#76 = LINE ( 'NONE', #675, #667 ) ;
#77 = VERTEX_POINT ( 'NONE', #280 ) ;
#78 = CARTESIAN_POINT ( 'NONE',  ( 650.0000000000000000, 19.99999999999993605, 0.0000000000000000000 ) ) ;
#79 = CARTESIAN_POINT ( 'NONE',  ( -552.0000000000018190, 0.0000000000000000000, -17.99999999999996092 ) ) ;
#80 = AXIS2_PLACEMENT_3D ( 'NONE', #226, #399, #725 ) ;
#81 = CARTESIAN_POINT ( 'NONE',  ( 0.0000000000000000000, 0.0000000000000000000, 0.0000000000000000000 ) ) ;
#82 = APPROVAL_ROLE ( '' ) ;
#83 = APPROVAL_DATE_TIME ( #240, #154 ) ;
#84 = EDGE_CURVE ( 'NONE', #222, #313, #96, .T. ) ;
#85 = FACE_BOUND ( 'NONE', #479, .T. ) ;
#86 = APPROVAL_ROLE ( '' ) ;
#87 = VERTEX_POINT ( 'NONE', #597 ) ;
#88 =( NAMED_UNIT ( * ) SI_UNIT ( $, .STERADIAN. ) SOLID_ANGLE_UNIT ( ) );
#89 = ORIENTED_EDGE ( 'NONE', *, *, #445, .T. ) ;
#90 = AXIS2_PLACEMENT_3D ( 'NONE', #734, #797, #289 ) ;
#91 = ADVANCED_FACE ( 'NONE', ( #264 ), #792, .F. ) ;
#92 = DIRECTION ( 'NONE',  ( 0.0000000000000000000, 0.0000000000000000000, -1.000000000000000000 ) ) ;
#93 = ADVANCED_FACE ( 'NONE', ( #293 ), #389, .F. ) ;
#94 = FACE_OUTER_BOUND ( 'NONE', #691, .T. ) ;
#95 = CIRCLE ( 'NONE', #248, 3.299999999999969624 ) ;
#96 = CIRCLE ( 'NONE', #205, 3.299999999999969624 ) ;
#97 = DIRECTION ( 'NONE',  ( 0.0000000000000000000, 0.0000000000000000000, -1.000000000000000000 ) ) ;
#98 = ORIENTED_EDGE ( 'NONE', *, *, #461, .T. ) ;
#99 = DIRECTION ( 'NONE',  ( -5.551115123125800846E-15, -1.000000000000000000, 0.0000000000000000000 ) ) ;
#100 = ORIENTED_EDGE ( 'NONE', *, *, #365, .F. ) ;
#101 = VERTEX_POINT ( 'NONE', #738 ) ;
#102 = DIRECTION ( 'NONE',  ( -0.0000000000000000000, -1.000000000000000000, -0.0000000000000000000 ) ) ;
#103 = CC_DESIGN_PERSON_AND_ORGANIZATION_ASSIGNMENT ( #727, #595, ( #255 ) ) ;
#104 = CARTESIAN_POINT ( 'NONE',  ( 551.9999999999973852, 0.0000000000000000000, -38.69999999999978968 ) ) ;
#105 = APPROVAL_DATE_TIME ( #431, #371 ) ;
#106 = CIRCLE ( 'NONE', #771, 3.299999999999969624 ) ;
#107 = DIRECTION ( 'NONE',  ( -0.0000000000000000000, -1.000000000000000000, -0.0000000000000000000 ) ) ;
#108 = CIRCLE ( 'NONE', #747, 3.299999999999969624 ) ;
#109 = AXIS2_PLACEMENT_3D ( 'NONE', #446, #201, #450 ) ;
#110 = EDGE_LOOP ( 'NONE', ( #364, #803 ) ) ;
#111 = ADVANCED_FACE ( 'NONE', ( #403 ), #570, .F. ) ;
#112 = PLANE ( 'NONE',  #714 ) ;
#113 = ORIENTED_EDGE ( 'NONE', *, *, #590, .F. ) ;
#114 = DIRECTION ( 'NONE',  ( -0.0000000000000000000, -1.000000000000000000, -0.0000000000000000000 ) ) ;
#115 = ORIENTED_EDGE ( 'NONE', *, *, #116, .F. ) ;
#116 = EDGE_CURVE ( 'NONE', #297, #34, #598, .T. ) ;
#117 = DIRECTION ( 'NONE',  ( 0.0000000000000000000, 0.0000000000000000000, -1.000000000000000000 ) ) ;
#118 = VERTEX_POINT ( 'NONE', #172 ) ;
#119 = VECTOR ( 'NONE', #159, 1000.000000000000000 ) ;
#120 = CARTESIAN_POINT ( 'NONE',  ( 551.9999999999973852, 19.99999999999993605, -38.69999999999978968 ) ) ;
#121 = EDGE_LOOP ( 'NONE', ( #113, #458, #625, #449 ) ) ;
#122 = DIRECTION ( 'NONE',  ( 0.0000000000000000000, 0.0000000000000000000, -1.000000000000000000 ) ) ;
#123 = DIRECTION ( 'NONE',  ( -0.0000000000000000000, -0.0000000000000000000, -1.000000000000000000 ) ) ;
#124 = ORIENTED_EDGE ( 'NONE', *, *, #116, .T. ) ;
#125 = ADVANCED_FACE ( 'NONE', ( #230 ), #525, .F. ) ;
#126 = DIRECTION ( 'NONE',  ( -0.0000000000000000000, -1.000000000000000000, -0.0000000000000000000 ) ) ;
#127 = AXIS2_PLACEMENT_3D ( 'NONE', #361, #632, #752 ) ;
#128 = DIRECTION ( 'NONE',  ( 0.0000000000000000000, 0.0000000000000000000, -1.000000000000000000 ) ) ;
#129 = FACE_OUTER_BOUND ( 'NONE', #29, .T. ) ;
#130 = DIRECTION ( 'NONE',  ( -0.0000000000000000000, -1.000000000000000000, -0.0000000000000000000 ) ) ;
#131 = ORIENTED_EDGE ( 'NONE', *, *, #548, .F. ) ;
#132 = ORIENTED_EDGE ( 'NONE', *, *, #487, .T. ) ;
#133 = EDGE_CURVE ( 'NONE', #406, #168, #338, .T. ) ;
#134 = CARTESIAN_POINT ( 'NONE',  ( 578.9999999999974989, 0.0000000000000000000, -21.29999999999970939 ) ) ;
#135 = CARTESIAN_POINT ( 'NONE',  ( -579.0000000000018190, 19.99999999999993605, -17.99999999999996092 ) ) ;
#136 = ORIENTED_EDGE ( 'NONE', *, *, #662, .F. ) ;
#137 = PERSON ( 'UNSPECIFIED', 'UNSPECIFIED', 'UNSPECIFIED', ('UNSPECIFIED'), ('UNSPECIFIED'), ('UNSPECIFIED') ) ;
#138 = CARTESIAN_POINT ( 'NONE',  ( 551.9999999999976126, 19.99999999999993605, -21.29999999999970939 ) ) ;
#139 = AXIS2_PLACEMENT_3D ( 'NONE', #488, #743, #690 ) ;
#140 = APPROVAL_PERSON_ORGANIZATION ( #327, #154, #82 ) ;
#141 = EDGE_CURVE ( 'NONE', #224, #345, #22, .T. ) ;
#142 = ORIENTED_EDGE ( 'NONE', *, *, #141, .F. ) ;
#143 = DIRECTION ( 'NONE',  ( 5.551115123125800846E-15, 1.000000000000000000, -0.0000000000000000000 ) ) ;
#144 = DIRECTION ( 'NONE',  ( -0.0000000000000000000, -1.000000000000000000, -0.0000000000000000000 ) ) ;
#145 = DIRECTION ( 'NONE',  ( -0.0000000000000000000, -1.000000000000000000, -0.0000000000000000000 ) ) ;
#146 = LINE ( 'NONE', #629, #337 ) ;
#147 = ORIENTED_EDGE ( 'NONE', *, *, #392, .T. ) ;
#148 = DIRECTION ( 'NONE',  ( -0.0000000000000000000, -1.000000000000000000, -0.0000000000000000000 ) ) ;
#149 = AXIS2_PLACEMENT_3D ( 'NONE', #739, #799, #697 ) ;
#150 = PERSON_AND_ORGANIZATION_ROLE ( 'creator' ) ;
#151 = APPROVAL_STATUS ( 'not_yet_approved' ) ;
#152 = VECTOR ( 'NONE', #268, 1000.000000000000000 ) ;
#153 = EDGE_CURVE ( 'NONE', #467, #420, #274, .T. ) ;
#154 = APPROVAL ( #151, 'UNSPECIFIED' ) ;
#155 = FACE_OUTER_BOUND ( 'NONE', #70, .T. ) ;
#156 = DIRECTION ( 'NONE',  ( 0.0000000000000000000, 0.0000000000000000000, -1.000000000000000000 ) ) ;
#157 = EDGE_LOOP ( 'NONE', ( #100, #550, #204, #223 ) ) ;
#158 = EDGE_CURVE ( 'NONE', #414, #379, #436, .T. ) ;
#159 = DIRECTION ( 'NONE',  ( -0.0000000000000000000, -1.000000000000000000, -0.0000000000000000000 ) ) ;
#160 = VERTEX_POINT ( 'NONE', #40 ) ;
#161 = DIRECTION ( 'NONE',  ( 0.0000000000000000000, 0.0000000000000000000, -1.000000000000000000 ) ) ;
#162 = ORIENTED_EDGE ( 'NONE', *, *, #829, .T. ) ;
#163 = ORIENTED_EDGE ( 'NONE', *, *, #334, .F. ) ;
#164 = ORIENTED_EDGE ( 'NONE', *, *, #133, .T. ) ;
#165 = DIRECTION ( 'NONE',  ( -0.0000000000000000000, -1.000000000000000000, -0.0000000000000000000 ) ) ;
#166 = ORIENTED_EDGE ( 'NONE', *, *, #445, .F. ) ;
#167 = EDGE_CURVE ( 'NONE', #807, #77, #95, .T. ) ;
#168 = VERTEX_POINT ( 'NONE', #746 ) ;
#169 = CARTESIAN_POINT ( 'NONE',  ( 578.9999999999974989, 19.99999999999993605, -41.99999999999975842 ) ) ;
#170 = ORIENTED_EDGE ( 'NONE', *, *, #602, .F. ) ;
#171 = DIRECTION ( 'NONE',  ( -0.0000000000000000000, -1.000000000000000000, -0.0000000000000000000 ) ) ;
#172 = CARTESIAN_POINT ( 'NONE',  ( 578.9999999999974989, 19.99999999999993605, -14.69999999999976836 ) ) ;
#173 = FACE_OUTER_BOUND ( 'NONE', #447, .T. ) ;
#174 = DIRECTION ( 'NONE',  ( 0.0000000000000000000, 0.0000000000000000000, -1.000000000000000000 ) ) ;
#175 = AXIS2_PLACEMENT_3D ( 'NONE', #514, #778, #653 ) ;
#176 = DIRECTION ( 'NONE',  ( 5.551115123125800846E-15, 1.000000000000000000, -0.0000000000000000000 ) ) ;
#177 = DIRECTION ( 'NONE',  ( 0.0000000000000000000, 0.0000000000000000000, -1.000000000000000000 ) ) ;
#178 = EDGE_CURVE ( 'NONE', #17, #244, #75, .T. ) ;
#179 = VERTEX_POINT ( 'NONE', #626 ) ;
#180 = DIRECTION ( 'NONE',  ( -0.0000000000000000000, -1.000000000000000000, -0.0000000000000000000 ) ) ;
#181 = DIRECTION ( 'NONE',  ( -0.0000000000000000000, -1.000000000000000000, -0.0000000000000000000 ) ) ;
#182 = CARTESIAN_POINT ( 'NONE',  ( -552.0000000000018190, 0.0000000000000000000, -45.29999999999995453 ) ) ;
#183 = ADVANCED_FACE ( 'NONE', ( #770 ), #112, .F. ) ;
#184 = LINE ( 'NONE', #503, #658 ) ;
#185 = DIRECTION ( 'NONE',  ( 0.0000000000000000000, 0.0000000000000000000, -1.000000000000000000 ) ) ;
#186 = EDGE_LOOP ( 'NONE', ( #542, #676 ) ) ;
#187 = EDGE_LOOP ( 'NONE', ( #538, #136 ) ) ;
#188 = ORIENTED_EDGE ( 'NONE', *, *, #643, .F. ) ;
#189 = DIRECTION ( 'NONE',  ( -0.0000000000000000000, -1.000000000000000000, -0.0000000000000000000 ) ) ;
#190 = AXIS2_PLACEMENT_3D ( 'NONE', #426, #491, #122 ) ;
#191 = DIRECTION ( 'NONE',  ( -2.775557561562900423E-15, -1.000000000000000000, 0.0000000000000000000 ) ) ;
#192 = LINE ( 'NONE', #65, #229 ) ;
#193 = DIRECTION ( 'NONE',  ( 0.0000000000000000000, 0.0000000000000000000, -1.000000000000000000 ) ) ;
#194 = MANIFOLD_SOLID_BREP ( 'Body-Move/Copy1', #490 ) ;
#195 = ORIENTED_EDGE ( 'NONE', *, *, #153, .T. ) ;
#196 = EDGE_CURVE ( 'NONE', #297, #313, #210, .T. ) ;
#197 = CARTESIAN_POINT ( 'NONE',  ( -579.0000000000018190, 0.0000000000000000000, -17.99999999999996092 ) ) ;
#198 = DIRECTION ( 'NONE',  ( 0.0000000000000000000, 0.0000000000000000000, -1.000000000000000000 ) ) ;
#199 = DIRECTION ( 'NONE',  ( -0.0000000000000000000, -1.000000000000000000, -0.0000000000000000000 ) ) ;
#200 = DIRECTION ( 'NONE',  ( -0.0000000000000000000, -1.000000000000000000, -0.0000000000000000000 ) ) ;
#201 = DIRECTION ( 'NONE',  ( -0.0000000000000000000, -1.000000000000000000, -0.0000000000000000000 ) ) ;
#202 = FACE_BOUND ( 'NONE', #539, .T. ) ;
#203 = FACE_OUTER_BOUND ( 'NONE', #121, .T. ) ;
#204 = ORIENTED_EDGE ( 'NONE', *, *, #347, .T. ) ;
#205 = AXIS2_PLACEMENT_3D ( 'NONE', #599, #346, #795 ) ;
#206 =( LENGTH_UNIT ( ) NAMED_UNIT ( * ) SI_UNIT ( .MILLI., .METRE. ) );
#207 = ORIENTED_EDGE ( 'NONE', *, *, #740, .T. ) ;
#208 = CALENDAR_DATE ( 2020, 6, 4 ) ;
#209 = CYLINDRICAL_SURFACE ( 'NONE', #786, 3.299999999999969624 ) ;
#210 = LINE ( 'NONE', #478, #44 ) ;
#211 = ORIENTED_EDGE ( 'NONE', *, *, #793, .T. ) ;
#212 = APPLICATION_CONTEXT ( 'configuration controlled 3d designs of mechanical parts and assemblies' ) ;
#213 = VERTEX_POINT ( 'NONE', #552 ) ;
#214 = DIRECTION ( 'NONE',  ( -0.0000000000000000000, -1.000000000000000000, -0.0000000000000000000 ) ) ;
#215 = VERTEX_POINT ( 'NONE', #120 ) ;
#216 = CALENDAR_DATE ( 2020, 6, 4 ) ;
#217 = CARTESIAN_POINT ( 'NONE',  ( -579.0000000000018190, 19.99999999999993605, -14.69999999999999041 ) ) ;
#218 = EDGE_CURVE ( 'NONE', #313, #222, #373, .T. ) ;
#219 = LINE ( 'NONE', #484, #634 ) ;
#220 = DIRECTION ( 'NONE',  ( -0.0000000000000000000, -1.000000000000000000, -0.0000000000000000000 ) ) ;
#221 = ORIENTED_EDGE ( 'NONE', *, *, #566, .T. ) ;
#222 = VERTEX_POINT ( 'NONE', #549 ) ;
#223 = ORIENTED_EDGE ( 'NONE', *, *, #392, .F. ) ;
#224 = VERTEX_POINT ( 'NONE', #485 ) ;
#225 = PLANE ( 'NONE',  #149 ) ;
#226 = CARTESIAN_POINT ( 'NONE',  ( -579.0000000000018190, 0.0000000000000000000, -41.99999999999997868 ) ) ;
#227 = APPROVAL_PERSON_ORGANIZATION ( #271, #371, #86 ) ;
#228 = VECTOR ( 'NONE', #331, 1000.000000000000000 ) ;
#229 = VECTOR ( 'NONE', #796, 1000.000000000000000 ) ;
#230 = FACE_OUTER_BOUND ( 'NONE', #766, .T. ) ;
#231 = CARTESIAN_POINT ( 'NONE',  ( -552.0000000000018190, 0.0000000000000000000, -17.99999999999996092 ) ) ;
#232 = EDGE_LOOP ( 'NONE', ( #660, #480, #680, #164 ) ) ;
#233 = DIRECTION ( 'NONE',  ( -0.0000000000000000000, -1.000000000000000000, -0.0000000000000000000 ) ) ;
#234 = CARTESIAN_POINT ( 'NONE',  ( 578.9999999999974989, 19.99999999999993605, -17.99999999999973710 ) ) ;
#235 = EDGE_CURVE ( 'NONE', #168, #101, #731, .T. ) ;
#236 = ORIENTED_EDGE ( 'NONE', *, *, #559, .T. ) ;
#237 = DIRECTION ( 'NONE',  ( -0.0000000000000000000, -1.000000000000000000, -0.0000000000000000000 ) ) ;
#238 = PLANE ( 'NONE',  #127 ) ;
#239 = DIRECTION ( 'NONE',  ( -0.0000000000000000000, -1.000000000000000000, -0.0000000000000000000 ) ) ;
#240 = DATE_AND_TIME ( #216, #709 ) ;
#241 = DIRECTION ( 'NONE',  ( 0.0000000000000000000, 0.0000000000000000000, -1.000000000000000000 ) ) ;
#242 = FACE_OUTER_BOUND ( 'NONE', #637, .T. ) ;
#243 = CARTESIAN_POINT ( 'NONE',  ( -650.0000000000001137, 19.99999999999993605, 0.0000000000000000000 ) ) ;
#244 = VERTEX_POINT ( 'NONE', #49 ) ;
#245 = ORIENTED_EDGE ( 'NONE', *, *, #602, .T. ) ;
#246 = CARTESIAN_POINT ( 'NONE',  ( 578.9999999999974989, 0.0000000000000000000, -17.99999999999973710 ) ) ;
#247 = ORIENTED_EDGE ( 'NONE', *, *, #527, .F. ) ;
#248 = AXIS2_PLACEMENT_3D ( 'NONE', #169, #237, #810 ) ;
#249 = CARTESIAN_POINT ( 'NONE',  ( -650.0000000000001137, 19.99999999999993605, 0.0000000000000000000 ) ) ;
#250 = CIRCLE ( 'NONE', #46, 3.299999999999969624 ) ;
#251 = DIRECTION ( 'NONE',  ( -0.0000000000000000000, -1.000000000000000000, -0.0000000000000000000 ) ) ;
#252 = EDGE_CURVE ( 'NONE', #774, #661, #6, .T. ) ;
#253 = DIRECTION ( 'NONE',  ( -0.0000000000000000000, -1.000000000000000000, -0.0000000000000000000 ) ) ;
#254 = ORIENTED_EDGE ( 'NONE', *, *, #320, .T. ) ;
#255 = PRODUCT_DEFINITION_FORMATION_WITH_SPECIFIED_SOURCE ( 'ANY', '', #639, .NOT_KNOWN. ) ;
#256 = DIRECTION ( 'NONE',  ( 0.0000000000000000000, 0.0000000000000000000, -1.000000000000000000 ) ) ;
#257 = CARTESIAN_POINT ( 'NONE',  ( -579.0000000000018190, 0.0000000000000000000, -41.99999999999997868 ) ) ;
#258 = VERTEX_POINT ( 'NONE', #681 ) ;
#259 = CARTESIAN_POINT ( 'NONE',  ( -186.0424028268553513, 213.6042402826855380, -350.0000000000000000 ) ) ;
#260 = AXIS2_PLACEMENT_3D ( 'NONE', #633, #560, #1 ) ;
#261 = ORIENTED_EDGE ( 'NONE', *, *, #668, .T. ) ;
#262 = APPROVAL_DATE_TIME ( #596, #551 ) ;
#263 = FACE_BOUND ( 'NONE', #820, .T. ) ;
#264 = FACE_OUTER_BOUND ( 'NONE', #581, .T. ) ;
#265 = EDGE_CURVE ( 'NONE', #179, #213, #718, .T. ) ;
#266 = EDGE_LOOP ( 'NONE', ( #98, #311 ) ) ;
#267 = ORIENTED_EDGE ( 'NONE', *, *, #320, .F. ) ;
#268 = DIRECTION ( 'NONE',  ( -0.0000000000000000000, -0.0000000000000000000, -1.000000000000000000 ) ) ;
#269 = UNCERTAINTY_MEASURE_WITH_UNIT (LENGTH_MEASURE( 1.000000000000000082E-05 ), #206, 'distance_accuracy_value', 'NONE');
#270 = PLANE ( 'NONE',  #175 ) ;
#271 = PERSON_AND_ORGANIZATION ( #137, #64 ) ;
#272 = FACE_BOUND ( 'NONE', #187, .T. ) ;
#273 = CIRCLE ( 'NONE', #762, 3.299999999999969624 ) ;
#274 = CIRCLE ( 'NONE', #510, 3.299999999999969624 ) ;
#275 = SECURITY_CLASSIFICATION_LEVEL ( 'unclassified' ) ;
#276 = ORIENTED_EDGE ( 'NONE', *, *, #387, .F. ) ;
#277 = ORIENTED_EDGE ( 'NONE', *, *, #382, .T. ) ;
#278 = EDGE_CURVE ( 'NONE', #575, #563, #303, .T. ) ;
#279 = VECTOR ( 'NONE', #145, 1000.000000000000000 ) ;
#280 = CARTESIAN_POINT ( 'NONE',  ( 578.9999999999974989, 19.99999999999993605, -45.29999999999972715 ) ) ;
#281 = VERTEX_POINT ( 'NONE', #54 ) ;
#282 = APPROVAL_STATUS ( 'not_yet_approved' ) ;
#283 = ORIENTED_EDGE ( 'NONE', *, *, #765, .T. ) ;
#284 = CARTESIAN_POINT ( 'NONE',  ( -552.0000000000018190, 19.99999999999993605, -38.70000000000000995 ) ) ;
#285 = CC_DESIGN_DATE_AND_TIME_ASSIGNMENT ( #631, #398, ( #507 ) ) ;
#286 = DIRECTION ( 'NONE',  ( 0.0000000000000000000, 0.0000000000000000000, -1.000000000000000000 ) ) ;
#287 = ORIENTED_EDGE ( 'NONE', *, *, #84, .F. ) ;
#288 = DIRECTION ( 'NONE',  ( 0.0000000000000000000, 0.0000000000000000000, -1.000000000000000000 ) ) ;
#289 = DIRECTION ( 'NONE',  ( 0.0000000000000000000, 0.0000000000000000000, -1.000000000000000000 ) ) ;
#290 = AXIS2_PLACEMENT_3D ( 'NONE', #314, #764, #193 ) ;
#291 = VECTOR ( 'NONE', #200, 1000.000000000000000 ) ;
#292 = DIRECTION ( 'NONE',  ( -0.0000000000000000000, -1.000000000000000000, -0.0000000000000000000 ) ) ;
#293 = FACE_OUTER_BOUND ( 'NONE', #332, .T. ) ;
#294 = VERTEX_POINT ( 'NONE', #134 ) ;
#295 = CARTESIAN_POINT ( 'NONE',  ( -650.0000000000001137, 0.0000000000000000000, 0.0000000000000000000 ) ) ;
#296 = EDGE_CURVE ( 'NONE', #406, #87, #580, .T. ) ;
#297 = VERTEX_POINT ( 'NONE', #384 ) ;
#298 = CARTESIAN_POINT ( 'NONE',  ( -552.0000000000018190, 19.99999999999993605, -17.99999999999996092 ) ) ;
#299 = PERSON_AND_ORGANIZATION ( #137, #64 ) ;
#300 = VECTOR ( 'NONE', #659, 1000.000000000000000 ) ;
#301 = AXIS2_PLACEMENT_3D ( 'NONE', #408, #466, #92 ) ;
#302 = CYLINDRICAL_SURFACE ( 'NONE', #377, 3.299999999999969624 ) ;
#303 = LINE ( 'NONE', #827, #53 ) ;
#304 = DIRECTION ( 'NONE',  ( -0.0000000000000000000, -1.000000000000000000, -0.0000000000000000000 ) ) ;
#305 = CARTESIAN_POINT ( 'NONE',  ( -552.0000000000018190, 0.0000000000000000000, -21.29999999999992966 ) ) ;
#306 = ORIENTED_EDGE ( 'NONE', *, *, #397, .F. ) ;
#307 = EDGE_CURVE ( 'NONE', #59, #281, #415, .T. ) ;
#308 = CARTESIAN_POINT ( 'NONE',  ( -552.0000000000018190, 19.99999999999993605, -41.99999999999997868 ) ) ;
#309 = FACE_OUTER_BOUND ( 'NONE', #526, .T. ) ;
#310 = ORIENTED_EDGE ( 'NONE', *, *, #178, .T. ) ;
#311 = ORIENTED_EDGE ( 'NONE', *, *, #432, .T. ) ;
#312 = ADVANCED_FACE ( 'NONE', ( #203 ), #473, .F. ) ;
#313 = VERTEX_POINT ( 'NONE', #182 ) ;
#314 = CARTESIAN_POINT ( 'NONE',  ( 551.9999999999976126, 19.99999999999993605, -17.99999999999973710 ) ) ;
#315 = DIRECTION ( 'NONE',  ( 0.0000000000000000000, 0.0000000000000000000, -1.000000000000000000 ) ) ;
#316 = LINE ( 'NONE', #582, #152 ) ;
#317 = DIRECTION ( 'NONE',  ( -0.0000000000000000000, -1.000000000000000000, -0.0000000000000000000 ) ) ;
#318 = FACE_OUTER_BOUND ( 'NONE', #785, .T. ) ;
#319 = FACE_OUTER_BOUND ( 'NONE', #603, .T. ) ;
#320 = EDGE_CURVE ( 'NONE', #345, #281, #321, .T. ) ;
#321 = LINE ( 'NONE', #763, #13 ) ;
#322 = CARTESIAN_POINT ( 'NONE',  ( 578.9999999999974989, 0.0000000000000000000, -14.69999999999976836 ) ) ;
#323 = CIRCLE ( 'NONE', #5, 3.299999999999969624 ) ;
#324 = CARTESIAN_POINT ( 'NONE',  ( -579.0000000000018190, 0.0000000000000000000, -17.99999999999996092 ) ) ;
#325 = ORIENTED_EDGE ( 'NONE', *, *, #527, .T. ) ;
#326 = CC_DESIGN_DATE_AND_TIME_ASSIGNMENT ( #567, #457, ( #591 ) ) ;
#327 = PERSON_AND_ORGANIZATION ( #137, #64 ) ;
#328 = CYLINDRICAL_SURFACE ( 'NONE', #27, 3.299999999999969624 ) ;
#329 = AXIS2_PLACEMENT_3D ( 'NONE', #231, #220, #288 ) ;
#330 = ORIENTED_EDGE ( 'NONE', *, *, #590, .T. ) ;
#331 = DIRECTION ( 'NONE',  ( -0.0000000000000000000, -1.000000000000000000, -0.0000000000000000000 ) ) ;
#332 = EDGE_LOOP ( 'NONE', ( #475, #131, #821, #348 ) ) ;
#333 = ORIENTED_EDGE ( 'NONE', *, *, #461, .F. ) ;
#334 = EDGE_CURVE ( 'NONE', #179, #406, #146, .T. ) ;
#335 = VECTOR ( 'NONE', #143, 1000.000000000000000 ) ;
#336 = FACE_BOUND ( 'NONE', #804, .T. ) ;
#337 = VECTOR ( 'NONE', #3, 1000.000000000000000 ) ;
#338 = LINE ( 'NONE', #243, #67 ) ;
#339 = AXIS2_PLACEMENT_3D ( 'NONE', #257, #317, #185 ) ;
#340 = DIRECTION ( 'NONE',  ( 0.0000000000000000000, 0.0000000000000000000, 1.000000000000000000 ) ) ;
#341 = CARTESIAN_POINT ( 'NONE',  ( 551.9999999999976126, 0.0000000000000000000, -17.99999999999973710 ) ) ;
#342 = ORIENTED_EDGE ( 'NONE', *, *, #470, .T. ) ;
#343 = MECHANICAL_CONTEXT ( 'NONE', #396, 'mechanical' ) ;
#344 = CARTESIAN_POINT ( 'NONE',  ( -579.0000000000018190, 19.99999999999993605, -41.99999999999997868 ) ) ;
#345 = VERTEX_POINT ( 'NONE', #430 ) ;
#346 = DIRECTION ( 'NONE',  ( -0.0000000000000000000, -1.000000000000000000, -0.0000000000000000000 ) ) ;
#347 = EDGE_CURVE ( 'NONE', #481, #160, #456, .T. ) ;
#348 = ORIENTED_EDGE ( 'NONE', *, *, #427, .T. ) ;
#349 = DIRECTION ( 'NONE',  ( 0.0000000000000000000, 0.0000000000000000000, -1.000000000000000000 ) ) ;
#350 = CARTESIAN_POINT ( 'NONE',  ( 551.9999999999976126, 0.0000000000000000000, -17.99999999999973710 ) ) ;
#351 = ORIENTED_EDGE ( 'NONE', *, *, #809, .T. ) ;
#352 = ORIENTED_EDGE ( 'NONE', *, *, #684, .F. ) ;
#353 = ADVANCED_FACE ( 'NONE', ( #508 ), #302, .F. ) ;
#354 = DIRECTION ( 'NONE',  ( 0.0000000000000000000, 0.0000000000000000000, -1.000000000000000000 ) ) ;
#355 = ORIENTED_EDGE ( 'NONE', *, *, #21, .F. ) ;
#356 = DIRECTION ( 'NONE',  ( -0.0000000000000000000, -1.000000000000000000, -0.0000000000000000000 ) ) ;
#357 = DIRECTION ( 'NONE',  ( -2.775557561562900423E-15, -1.000000000000000000, 0.0000000000000000000 ) ) ;
#358 = AXIS2_PLACEMENT_3D ( 'NONE', #469, #26, #99 ) ;
#359 = CYLINDRICAL_SURFACE ( 'NONE', #441, 3.299999999999969624 ) ;
#360 = FACE_BOUND ( 'NONE', #110, .T. ) ;
#361 = CARTESIAN_POINT ( 'NONE',  ( -650.0000000000001137, 0.0000000000000000000, 0.0000000000000000000 ) ) ;
#362 = VECTOR ( 'NONE', #123, 1000.000000000000000 ) ;
#363 = DIRECTION ( 'NONE',  ( 1.000000000000000000, -2.775557561562900423E-15, 0.0000000000000000000 ) ) ;
#364 = ORIENTED_EDGE ( 'NONE', *, *, #153, .F. ) ;
#365 = EDGE_CURVE ( 'NONE', #215, #617, #826, .T. ) ;
#366 = DIRECTION ( 'NONE',  ( -0.0000000000000000000, -1.000000000000000000, -0.0000000000000000000 ) ) ;
#367 = ORIENTED_EDGE ( 'NONE', *, *, #235, .F. ) ;
#368 = DIRECTION ( 'NONE',  ( 0.0000000000000000000, 0.0000000000000000000, -1.000000000000000000 ) ) ;
#369 = PERSON_AND_ORGANIZATION ( #137, #64 ) ;
#370 = DIRECTION ( 'NONE',  ( -0.0000000000000000000, -1.000000000000000000, -0.0000000000000000000 ) ) ;
#371 = APPROVAL ( #589, 'UNSPECIFIED' ) ;
#372 = CIRCLE ( 'NONE', #802, 3.299999999999969624 ) ;
#373 = CIRCLE ( 'NONE', #139, 3.299999999999969624 ) ;
#374 = ORIENTED_EDGE ( 'NONE', *, *, #668, .F. ) ;
#375 = ORIENTED_EDGE ( 'NONE', *, *, #73, .F. ) ;
#376 = ADVANCED_FACE ( 'NONE', ( #319 ), #463, .F. ) ;
#377 = AXIS2_PLACEMENT_3D ( 'NONE', #442, #253, #700 ) ;
#378 = DIRECTION ( 'NONE',  ( -0.0000000000000000000, -1.000000000000000000, -0.0000000000000000000 ) ) ;
#379 = VERTEX_POINT ( 'NONE', #437 ) ;
#380 = CARTESIAN_POINT ( 'NONE',  ( -650.0000000000001137, 19.99999999999993605, 0.0000000000000000000 ) ) ;
#381 = PERSON_AND_ORGANIZATION ( #137, #64 ) ;
#382 = EDGE_CURVE ( 'NONE', #420, #467, #273, .T. ) ;
#383 = FACE_OUTER_BOUND ( 'NONE', #451, .T. ) ;
#384 = CARTESIAN_POINT ( 'NONE',  ( -552.0000000000018190, 19.99999999999993605, -45.29999999999995453 ) ) ;
#385 = AXIS2_PLACEMENT_3D ( 'NONE', #534, #165, #537 ) ;
#386 = LINE ( 'NONE', #295, #717 ) ;
#387 = EDGE_CURVE ( 'NONE', #438, #468, #647, .T. ) ;
#388 = CARTESIAN_POINT ( 'NONE',  ( -650.0000000000001137, 19.99999999999993605, -350.0000000000000000 ) ) ;
#389 = CYLINDRICAL_SURFACE ( 'NONE', #385, 3.299999999999969624 ) ;
#390 = ORIENTED_EDGE ( 'NONE', *, *, #8, .F. ) ;
#391 = CARTESIAN_POINT ( 'NONE',  ( 578.9999999999974989, 0.0000000000000000000, -45.29999999999972715 ) ) ;
#392 = EDGE_CURVE ( 'NONE', #617, #160, #742, .T. ) ;
#393 = LOCAL_TIME ( 14, 53, 51.00000000000000000, #768 ) ;
#394 = CYLINDRICAL_SURFACE ( 'NONE', #455, 3.299999999999969624 ) ;
#395 = AXIS2_PLACEMENT_3D ( 'NONE', #135, #706, #572 ) ;
#396 = APPLICATION_CONTEXT ( 'configuration controlled 3d designs of mechanical parts and assemblies' ) ;
#397 = EDGE_CURVE ( 'NONE', #468, #438, #108, .T. ) ;
#398 = DATE_TIME_ROLE ( 'classification_date' ) ;
#399 = DIRECTION ( 'NONE',  ( -0.0000000000000000000, -1.000000000000000000, -0.0000000000000000000 ) ) ;
#400 = FACE_BOUND ( 'NONE', #654, .T. ) ;
#401 = APPLICATION_PROTOCOL_DEFINITION ( 'international standard', 'config_control_design', 1994, #396 ) ;
#402 = CARTESIAN_POINT ( 'NONE',  ( 578.9999999999974989, 0.0000000000000000000, -45.29999999999972715 ) ) ;
#403 = FACE_OUTER_BOUND ( 'NONE', #689, .T. ) ;
#404 = ORIENTED_EDGE ( 'NONE', *, *, #347, .F. ) ;
#405 = CC_DESIGN_APPROVAL ( #551, ( #255 ) ) ;
#406 = VERTEX_POINT ( 'NONE', #249 ) ;
#407 = ORIENTED_EDGE ( 'NONE', *, *, #662, .T. ) ;
#408 = CARTESIAN_POINT ( 'NONE',  ( 578.9999999999974989, 19.99999999999993605, -17.99999999999973710 ) ) ;
#409 = AXIS2_PLACEMENT_3D ( 'NONE', #808, #419, #174 ) ;
#410 = ORIENTED_EDGE ( 'NONE', *, *, #8, .T. ) ;
#411 = CARTESIAN_POINT ( 'NONE',  ( 551.9999999999973852, 0.0000000000000000000, -41.99999999999975842 ) ) ;
#412 = FACE_OUTER_BOUND ( 'NONE', #536, .T. ) ;
#413 = CARTESIAN_POINT ( 'NONE',  ( -579.0000000000018190, 19.99999999999993605, -41.99999999999997868 ) ) ;
#414 = VERTEX_POINT ( 'NONE', #772 ) ;
#415 = CIRCLE ( 'NONE', #339, 3.299999999999969624 ) ;
#416 = ORIENTED_EDGE ( 'NONE', *, *, #68, .T. ) ;
#417 = EDGE_CURVE ( 'NONE', #518, #438, #192, .T. ) ;
#418 = CARTESIAN_POINT ( 'NONE',  ( 650.0000000000000000, 19.99999999999993605, 0.0000000000000000000 ) ) ;
#419 = DIRECTION ( 'NONE',  ( -0.0000000000000000000, -1.000000000000000000, -0.0000000000000000000 ) ) ;
#420 = VERTEX_POINT ( 'NONE', #648 ) ;
#421 = DIRECTION ( 'NONE',  ( 0.0000000000000000000, 0.0000000000000000000, -1.000000000000000000 ) ) ;
#422 = AXIS2_PLACEMENT_3D ( 'NONE', #489, #181, #241 ) ;
#423 = DIRECTION ( 'NONE',  ( -0.0000000000000000000, -1.000000000000000000, -0.0000000000000000000 ) ) ;
#424 = ORIENTED_EDGE ( 'NONE', *, *, #609, .F. ) ;
#425 = ORIENTED_EDGE ( 'NONE', *, *, #48, .T. ) ;
#426 = CARTESIAN_POINT ( 'NONE',  ( -552.0000000000018190, 19.99999999999993605, -41.99999999999997868 ) ) ;
#427 = EDGE_CURVE ( 'NONE', #294, #58, #372, .T. ) ;
#428 = DIRECTION ( 'NONE',  ( 0.0000000000000000000, 0.0000000000000000000, -1.000000000000000000 ) ) ;
#429 = ORIENTED_EDGE ( 'NONE', *, *, #622, .F. ) ;
#430 = CARTESIAN_POINT ( 'NONE',  ( -579.0000000000018190, 19.99999999999993605, -38.70000000000000995 ) ) ;
#431 = DATE_AND_TIME ( #646, #750 ) ;
#432 = EDGE_CURVE ( 'NONE', #17, #414, #674, .T. ) ;
#433 = CYLINDRICAL_SURFACE ( 'NONE', #816, 3.299999999999969624 ) ;
#434 = DIRECTION ( 'NONE',  ( -0.0000000000000000000, -1.000000000000000000, -0.0000000000000000000 ) ) ;
#435 = LINE ( 'NONE', #672, #711 ) ;
#436 = LINE ( 'NONE', #305, #812 ) ;
#437 = CARTESIAN_POINT ( 'NONE',  ( -552.0000000000018190, 0.0000000000000000000, -21.29999999999992966 ) ) ;
#438 = VERTEX_POINT ( 'NONE', #732 ) ;
#439 = DESIGN_CONTEXT ( 'detailed design', #212, 'design' ) ;
#440 = ADVANCED_FACE ( 'NONE', ( #546 ), #328, .F. ) ;
#441 = AXIS2_PLACEMENT_3D ( 'NONE', #197, #9, #780 ) ;
#442 = CARTESIAN_POINT ( 'NONE',  ( 551.9999999999973852, 0.0000000000000000000, -41.99999999999975842 ) ) ;
#443 = ORIENTED_EDGE ( 'NONE', *, *, #278, .F. ) ;
#444 = CALENDAR_DATE ( 2020, 6, 4 ) ;
#445 = EDGE_CURVE ( 'NONE', #345, #224, #798, .T. ) ;
#446 = CARTESIAN_POINT ( 'NONE',  ( 551.9999999999976126, 19.99999999999993605, -17.99999999999973710 ) ) ;
#447 = EDGE_LOOP ( 'NONE', ( #170, #261, #744, #719 ) ) ;
#448 = ADVANCED_BREP_SHAPE_REPRESENTATION ( 'Table_Default_sldprt', ( #194, #57 ), #651 ) ;
#449 = ORIENTED_EDGE ( 'NONE', *, *, #196, .F. ) ;
#450 = DIRECTION ( 'NONE',  ( 0.0000000000000000000, 0.0000000000000000000, -1.000000000000000000 ) ) ;
#451 = EDGE_LOOP ( 'NONE', ( #733, #754, #163, #722 ) ) ;
#452 = DIRECTION ( 'NONE',  ( -0.0000000000000000000, -1.000000000000000000, -0.0000000000000000000 ) ) ;
#453 = CARTESIAN_POINT ( 'NONE',  ( 551.9999999999976126, 19.99999999999993605, -14.69999999999976836 ) ) ;
#454 = LINE ( 'NONE', #506, #291 ) ;
#455 = AXIS2_PLACEMENT_3D ( 'NONE', #71, #62, #198 ) ;
#456 = CIRCLE ( 'NONE', #553, 3.299999999999969624 ) ;
#457 = DATE_TIME_ROLE ( 'creation_date' ) ;
#458 = ORIENTED_EDGE ( 'NONE', *, *, #609, .T. ) ;
#459 = ORIENTED_EDGE ( 'NONE', *, *, #751, .F. ) ;
#460 = CARTESIAN_POINT ( 'NONE',  ( -552.0000000000018190, 0.0000000000000000000, -41.99999999999997868 ) ) ;
#461 = EDGE_CURVE ( 'NONE', #414, #17, #106, .T. ) ;
#462 = ORIENTED_EDGE ( 'NONE', *, *, #720, .T. ) ;
#463 = CYLINDRICAL_SURFACE ( 'NONE', #823, 3.299999999999969624 ) ;
#464 = AXIS2_PLACEMENT_3D ( 'NONE', #350, #24, #156 ) ;
#465 = CIRCLE ( 'NONE', #80, 3.299999999999969624 ) ;
#466 = DIRECTION ( 'NONE',  ( -0.0000000000000000000, -1.000000000000000000, -0.0000000000000000000 ) ) ;
#467 = VERTEX_POINT ( 'NONE', #402 ) ;
#468 = VERTEX_POINT ( 'NONE', #683 ) ;
#469 = CARTESIAN_POINT ( 'NONE',  ( 650.0000000000000000, 19.99999999999993605, 0.0000000000000000000 ) ) ;
#470 = EDGE_CURVE ( 'NONE', #87, #575, #386, .T. ) ;
#471 = CARTESIAN_POINT ( 'NONE',  ( 551.9999999999973852, 0.0000000000000000000, -41.99999999999975842 ) ) ;
#472 = FACE_BOUND ( 'NONE', #584, .T. ) ;
#473 = CYLINDRICAL_SURFACE ( 'NONE', #260, 3.299999999999969624 ) ;
#474 = EDGE_CURVE ( 'NONE', #258, #294, #435, .T. ) ;
#475 = ORIENTED_EDGE ( 'NONE', *, *, #708, .F. ) ;
#476 = CARTESIAN_POINT ( 'NONE',  ( 578.9999999999974989, 0.0000000000000000000, -14.69999999999976836 ) ) ;
#477 = EDGE_LOOP ( 'NONE', ( #756, #767 ) ) ;
#478 = CARTESIAN_POINT ( 'NONE',  ( -552.0000000000018190, 0.0000000000000000000, -45.29999999999995453 ) ) ;
#479 = EDGE_LOOP ( 'NONE', ( #188, #600 ) ) ;
#480 = ORIENTED_EDGE ( 'NONE', *, *, #829, .F. ) ;
#481 = VERTEX_POINT ( 'NONE', #104 ) ;
#482 = DIRECTION ( 'NONE',  ( -0.0000000000000000000, -0.0000000000000000000, -1.000000000000000000 ) ) ;
#483 = AXIS2_PLACEMENT_3D ( 'NONE', #259, #710, #707 ) ;
#484 = CARTESIAN_POINT ( 'NONE',  ( 650.0000000000000000, 19.99999999999993605, -350.0000000000000000 ) ) ;
#485 = CARTESIAN_POINT ( 'NONE',  ( -579.0000000000018190, 19.99999999999993605, -45.29999999999995453 ) ) ;
#486 = EDGE_LOOP ( 'NONE', ( #425, #640 ) ) ;
#487 = EDGE_CURVE ( 'NONE', #160, #481, #52, .T. ) ;
#488 = CARTESIAN_POINT ( 'NONE',  ( -552.0000000000018190, 0.0000000000000000000, -41.99999999999997868 ) ) ;
#489 = CARTESIAN_POINT ( 'NONE',  ( -552.0000000000018190, 0.0000000000000000000, -17.99999999999996092 ) ) ;
#490 = CLOSED_SHELL ( 'NONE', ( #737, #493, #125, #312, #608, #61, #616, #440, #183, #568, #91, #500, #701, #788, #353, #543, #376, #93, #641, #111, #523, #630 ) ) ;
#491 = DIRECTION ( 'NONE',  ( -0.0000000000000000000, -1.000000000000000000, -0.0000000000000000000 ) ) ;
#492 = CARTESIAN_POINT ( 'NONE',  ( 551.9999999999973852, 0.0000000000000000000, -45.29999999999972715 ) ) ;
#493 = ADVANCED_FACE ( 'NONE', ( #12 ), #610, .F. ) ;
#494 = VECTOR ( 'NONE', #199, 1000.000000000000000 ) ;
#495 = DIRECTION ( 'NONE',  ( -0.0000000000000000000, -1.000000000000000000, -0.0000000000000000000 ) ) ;
#496 = FACE_BOUND ( 'NONE', #38, .T. ) ;
#497 = DIRECTION ( 'NONE',  ( 0.0000000000000000000, 0.0000000000000000000, -1.000000000000000000 ) ) ;
#498 = ORIENTED_EDGE ( 'NONE', *, *, #141, .T. ) ;
#499 = ORIENTED_EDGE ( 'NONE', *, *, #517, .F. ) ;
#500 = ADVANCED_FACE ( 'NONE', ( #781, #588, #400, #336, #20, #472, #263, #729, #383 ), #225, .F. ) ;
#501 = AXIS2_PLACEMENT_3D ( 'NONE', #636, #378, #502 ) ;
#502 = DIRECTION ( 'NONE',  ( 0.0000000000000000000, 0.0000000000000000000, -1.000000000000000000 ) ) ;
#503 = CARTESIAN_POINT ( 'NONE',  ( -552.0000000000018190, 0.0000000000000000000, -38.70000000000000995 ) ) ;
#504 = ORIENTED_EDGE ( 'NONE', *, *, #334, .T. ) ;
#505 = DIRECTION ( 'NONE',  ( -0.0000000000000000000, -1.000000000000000000, -0.0000000000000000000 ) ) ;
#506 = CARTESIAN_POINT ( 'NONE',  ( 551.9999999999973852, 0.0000000000000000000, -38.69999999999978968 ) ) ;
#507 = SECURITY_CLASSIFICATION ( '', '', #275 ) ;
#508 = FACE_OUTER_BOUND ( 'NONE', #761, .T. ) ;
#509 = CARTESIAN_POINT ( 'NONE',  ( -650.0000000000001137, 0.0000000000000000000, -350.0000000000000000 ) ) ;
#510 = AXIS2_PLACEMENT_3D ( 'NONE', #45, #815, #624 ) ;
#511 = ORIENTED_EDGE ( 'NONE', *, *, #196, .T. ) ;
#512 = LOCAL_TIME ( 14, 53, 51.00000000000000000, #695 ) ;
#513 = CIRCLE ( 'NONE', #692, 3.299999999999969624 ) ;
#514 = CARTESIAN_POINT ( 'NONE',  ( -186.0424028268553513, 213.6042402826855380, 0.0000000000000000000 ) ) ;
#515 = FACE_OUTER_BOUND ( 'NONE', #33, .T. ) ;
#516 = ORIENTED_EDGE ( 'NONE', *, *, #48, .F. ) ;
#517 = EDGE_CURVE ( 'NONE', #15, #535, #66, .T. ) ;
#518 = VERTEX_POINT ( 'NONE', #755 ) ;
#519 = ORIENTED_EDGE ( 'NONE', *, *, #684, .T. ) ;
#520 = FACE_OUTER_BOUND ( 'NONE', #25, .T. ) ;
#521 = FACE_BOUND ( 'NONE', #477, .T. ) ;
#522 = AXIS2_PLACEMENT_3D ( 'NONE', #585, #452, #14 ) ;
#523 = ADVANCED_FACE ( 'NONE', ( #412 ), #209, .F. ) ;
#524 = APPLICATION_PROTOCOL_DEFINITION ( 'international standard', 'config_control_design', 1994, #212 ) ;
#525 = CYLINDRICAL_SURFACE ( 'NONE', #726, 3.299999999999969624 ) ;
#526 = EDGE_LOOP ( 'NONE', ( #592, #410, #277, #352 ) ) ;
#527 = EDGE_CURVE ( 'NONE', #518, #36, #557, .T. ) ;
#528 = ORIENTED_EDGE ( 'NONE', *, *, #73, .T. ) ;
#529 = ORIENTED_EDGE ( 'NONE', *, *, #643, .T. ) ;
#530 = DIRECTION ( 'NONE',  ( -0.0000000000000000000, -1.000000000000000000, -0.0000000000000000000 ) ) ;
#531 = APPROVAL_PERSON_ORGANIZATION ( #50, #551, #724 ) ;
#532 = DIRECTION ( 'NONE',  ( 0.0000000000000000000, 0.0000000000000000000, -1.000000000000000000 ) ) ;
#533 = LINE ( 'NONE', #822, #43 ) ;
#534 = CARTESIAN_POINT ( 'NONE',  ( 578.9999999999974989, 0.0000000000000000000, -17.99999999999973710 ) ) ;
#535 = VERTEX_POINT ( 'NONE', #819 ) ;
#536 = EDGE_LOOP ( 'NONE', ( #783, #333, #759, #529 ) ) ;
#537 = DIRECTION ( 'NONE',  ( 0.0000000000000000000, 0.0000000000000000000, -1.000000000000000000 ) ) ;
#538 = ORIENTED_EDGE ( 'NONE', *, *, #427, .F. ) ;
#539 = EDGE_LOOP ( 'NONE', ( #375, #499 ) ) ;
#540 = CARTESIAN_POINT ( 'NONE',  ( -579.0000000000018190, 0.0000000000000000000, -45.29999999999995453 ) ) ;
#541 = AXIS2_PLACEMENT_3D ( 'NONE', #308, #239, #753 ) ;
#542 = ORIENTED_EDGE ( 'NONE', *, *, #548, .T. ) ;
#543 = ADVANCED_FACE ( 'NONE', ( #94 ), #579, .F. ) ;
#544 = DIRECTION ( 'NONE',  ( 0.0000000000000000000, 0.0000000000000000000, -1.000000000000000000 ) ) ;
#545 = CIRCLE ( 'NONE', #522, 3.299999999999969624 ) ;
#546 = FACE_OUTER_BOUND ( 'NONE', #157, .T. ) ;
#547 = DIRECTION ( 'NONE',  ( -0.0000000000000000000, -1.000000000000000000, -0.0000000000000000000 ) ) ;
#548 = EDGE_CURVE ( 'NONE', #258, #118, #250, .T. ) ;
#549 = CARTESIAN_POINT ( 'NONE',  ( -552.0000000000018190, 0.0000000000000000000, -38.70000000000000995 ) ) ;
#550 = ORIENTED_EDGE ( 'NONE', *, *, #622, .T. ) ;
#551 = APPROVAL ( #282, 'UNSPECIFIED' ) ;
#552 = CARTESIAN_POINT ( 'NONE',  ( 650.0000000000000000, 19.99999999999993605, -350.0000000000000000 ) ) ;
#553 = AXIS2_PLACEMENT_3D ( 'NONE', #60, #645, #638 ) ;
#554 = PERSON_AND_ORGANIZATION ( #137, #64 ) ;
#555 = DIRECTION ( 'NONE',  ( -0.0000000000000000000, -1.000000000000000000, -0.0000000000000000000 ) ) ;
#556 = DIRECTION ( 'NONE',  ( 2.775557561562900423E-15, 1.000000000000000000, 0.0000000000000000000 ) ) ;
#557 = CIRCLE ( 'NONE', #664, 3.299999999999969624 ) ;
#558 = VECTOR ( 'NONE', #357, 1000.000000000000000 ) ;
#559 = EDGE_CURVE ( 'NONE', #563, #213, #219, .T. ) ;
#560 = DIRECTION ( 'NONE',  ( -0.0000000000000000000, -1.000000000000000000, -0.0000000000000000000 ) ) ;
#561 = EDGE_LOOP ( 'NONE', ( #679, #342, #351, #504 ) ) ;
#562 = ORIENTED_EDGE ( 'NONE', *, *, #809, .F. ) ;
#563 = VERTEX_POINT ( 'NONE', #688 ) ;
#564 = CARTESIAN_POINT ( 'NONE',  ( -579.0000000000018190, 0.0000000000000000000, -17.99999999999996092 ) ) ;
#565 = ORIENTED_EDGE ( 'NONE', *, *, #577, .T. ) ;
#566 = EDGE_CURVE ( 'NONE', #224, #59, #533, .T. ) ;
#567 = DATE_AND_TIME ( #444, #619 ) ;
#568 = ADVANCED_FACE ( 'NONE', ( #496, #85, #521, #698, #272, #202, #360, #30, #242 ), #238, .F. ) ;
#569 = CIRCLE ( 'NONE', #422, 3.299999999999969624 ) ;
#570 = CYLINDRICAL_SURFACE ( 'NONE', #90, 3.299999999999969624 ) ;
#571 = EDGE_LOOP ( 'NONE', ( #704, #404 ) ) ;
#572 = DIRECTION ( 'NONE',  ( 0.0000000000000000000, 0.0000000000000000000, -1.000000000000000000 ) ) ;
#573 = AXIS2_PLACEMENT_3D ( 'NONE', #344, #356, #532 ) ;
#574 = DIRECTION ( 'NONE',  ( -0.0000000000000000000, -1.000000000000000000, -0.0000000000000000000 ) ) ;
#575 = VERTEX_POINT ( 'NONE', #621 ) ;
#576 = ORIENTED_EDGE ( 'NONE', *, *, #218, .F. ) ;
#577 = EDGE_CURVE ( 'NONE', #244, #379, #569, .T. ) ;
#578 = LINE ( 'NONE', #322, #494 ) ;
#579 = CYLINDRICAL_SURFACE ( 'NONE', #32, 3.299999999999969624 ) ;
#580 = LINE ( 'NONE', #380, #687 ) ;
#581 = EDGE_LOOP ( 'NONE', ( #236, #655, #562, #18 ) ) ;
#582 = CARTESIAN_POINT ( 'NONE',  ( -650.0000000000001137, 0.0000000000000000000, 0.0000000000000000000 ) ) ;
#583 = PRODUCT_RELATED_PRODUCT_CATEGORY ( 'detail', '', ( #639 ) ) ;
#584 = EDGE_LOOP ( 'NONE', ( #828, #207 ) ) ;
#585 = CARTESIAN_POINT ( 'NONE',  ( 578.9999999999974989, 19.99999999999993605, -41.99999999999975842 ) ) ;
#586 = AXIS2_PLACEMENT_3D ( 'NONE', #79, #148, #117 ) ;
#587 =( NAMED_UNIT ( * ) PLANE_ANGLE_UNIT ( ) SI_UNIT ( $, .RADIAN. ) );
#588 = FACE_BOUND ( 'NONE', #266, .T. ) ;
#589 = APPROVAL_STATUS ( 'not_yet_approved' ) ;
#590 = EDGE_CURVE ( 'NONE', #34, #297, #685, .T. ) ;
#591 = PRODUCT_DEFINITION ( 'UNKNOWN', '', #255, #439 ) ;
#592 = ORIENTED_EDGE ( 'NONE', *, *, #167, .F. ) ;
#593 = ORIENTED_EDGE ( 'NONE', *, *, #39, .T. ) ;
#594 = ORIENTED_EDGE ( 'NONE', *, *, #470, .F. ) ;
#595 = PERSON_AND_ORGANIZATION_ROLE ( 'creator' ) ;
#596 = DATE_AND_TIME ( #208, #393 ) ;
#597 = CARTESIAN_POINT ( 'NONE',  ( -650.0000000000001137, 0.0000000000000000000, 0.0000000000000000000 ) ) ;
#598 = CIRCLE ( 'NONE', #541, 3.299999999999969624 ) ;
#599 = CARTESIAN_POINT ( 'NONE',  ( -552.0000000000018190, 0.0000000000000000000, -41.99999999999997868 ) ) ;
#600 = ORIENTED_EDGE ( 'NONE', *, *, #577, .F. ) ;
#601 = DIRECTION ( 'NONE',  ( 1.000000000000000000, 0.0000000000000000000, 0.0000000000000000000 ) ) ;
#602 = EDGE_CURVE ( 'NONE', #36, #518, #825, .T. ) ;
#603 = EDGE_LOOP ( 'NONE', ( #652, #7, #593, #528 ) ) ;
#604 = ORIENTED_EDGE ( 'NONE', *, *, #417, .T. ) ;
#605 = DIRECTION ( 'NONE',  ( -0.0000000000000000000, -1.000000000000000000, -0.0000000000000000000 ) ) ;
#606 = CARTESIAN_POINT ( 'NONE',  ( 551.9999999999976126, 0.0000000000000000000, -14.69999999999976836 ) ) ;
#607 = LINE ( 'NONE', #69, #300 ) ;
#608 = ADVANCED_FACE ( 'NONE', ( #515 ), #741, .F. ) ;
#609 = EDGE_CURVE ( 'NONE', #34, #222, #184, .T. ) ;
#610 = CYLINDRICAL_SURFACE ( 'NONE', #329, 3.299999999999969624 ) ;
#611 = DIRECTION ( 'NONE',  ( -0.0000000000000000000, -1.000000000000000000, -0.0000000000000000000 ) ) ;
#612 = CC_DESIGN_PERSON_AND_ORGANIZATION_ASSIGNMENT ( #381, #150, ( #591 ) ) ;
#613 = EDGE_LOOP ( 'NONE', ( #325, #245 ) ) ;
#614 = ORIENTED_EDGE ( 'NONE', *, *, #765, .F. ) ;
#615 = CARTESIAN_POINT ( 'NONE',  ( -552.0000000000018190, 0.0000000000000000000, -14.69999999999999041 ) ) ;
#616 = ADVANCED_FACE ( 'NONE', ( #309 ), #394, .F. ) ;
#617 = VERTEX_POINT ( 'NONE', #642 ) ;
#618 = DIRECTION ( 'NONE',  ( 0.0000000000000000000, 0.0000000000000000000, -1.000000000000000000 ) ) ;
#619 = LOCAL_TIME ( 14, 53, 51.00000000000000000, #787 ) ;
#620 = FACE_OUTER_BOUND ( 'NONE', #561, .T. ) ;
#621 = CARTESIAN_POINT ( 'NONE',  ( 649.9999999999998863, 0.0000000000000000000, 0.0000000000000000000 ) ) ;
#622 = EDGE_CURVE ( 'NONE', #215, #481, #454, .T. ) ;
#623 = VECTOR ( 'NONE', #423, 1000.000000000000000 ) ;
#624 = DIRECTION ( 'NONE',  ( 0.0000000000000000000, 0.0000000000000000000, -1.000000000000000000 ) ) ;
#625 = ORIENTED_EDGE ( 'NONE', *, *, #84, .T. ) ;
#626 = CARTESIAN_POINT ( 'NONE',  ( 650.0000000000000000, 19.99999999999993605, 0.0000000000000000000 ) ) ;
#627 = ORIENTED_EDGE ( 'NONE', *, *, #158, .F. ) ;
#628 = CARTESIAN_POINT ( 'NONE',  ( 578.9999999999974989, 0.0000000000000000000, -41.99999999999975842 ) ) ;
#629 = CARTESIAN_POINT ( 'NONE',  ( -650.0000000000001137, 19.99999999999993605, 0.0000000000000000000 ) ) ;
#630 = ADVANCED_FACE ( 'NONE', ( #129 ), #433, .F. ) ;
#631 = DATE_AND_TIME ( #11, #512 ) ;
#632 = DIRECTION ( 'NONE',  ( 0.0000000000000000000, 1.000000000000000000, 0.0000000000000000000 ) ) ;
#633 = CARTESIAN_POINT ( 'NONE',  ( -552.0000000000018190, 0.0000000000000000000, -41.99999999999997868 ) ) ;
#634 = VECTOR ( 'NONE', #176, 1000.000000000000000 ) ;
#635 = AXIS2_PLACEMENT_3D ( 'NONE', #758, #189, #315 ) ;
#636 = CARTESIAN_POINT ( 'NONE',  ( 551.9999999999973852, 19.99999999999993605, -41.99999999999975842 ) ) ;
#637 = EDGE_LOOP ( 'NONE', ( #283, #443, #594, #162 ) ) ;
#638 = DIRECTION ( 'NONE',  ( 0.0000000000000000000, 0.0000000000000000000, -1.000000000000000000 ) ) ;
#639 = PRODUCT ( 'Table_Default_sldprt', 'Table_Default_sldprt', '', ( #343 ) ) ;
#640 = ORIENTED_EDGE ( 'NONE', *, *, #365, .T. ) ;
#641 = ADVANCED_FACE ( 'NONE', ( #318 ), #28, .F. ) ;
#642 = CARTESIAN_POINT ( 'NONE',  ( 551.9999999999973852, 19.99999999999993605, -45.29999999999972715 ) ) ;
#643 = EDGE_CURVE ( 'NONE', #379, #244, #769, .T. ) ;
#644 = ORIENTED_EDGE ( 'NONE', *, *, #167, .T. ) ;
#645 = DIRECTION ( 'NONE',  ( -0.0000000000000000000, -1.000000000000000000, -0.0000000000000000000 ) ) ;
#646 = CALENDAR_DATE ( 2020, 6, 4 ) ;
#647 = CIRCLE ( 'NONE', #63, 3.299999999999969624 ) ;
#648 = CARTESIAN_POINT ( 'NONE',  ( 578.9999999999974989, 0.0000000000000000000, -38.69999999999978968 ) ) ;
#649 = LINE ( 'NONE', #35, #119 ) ;
#650 = DIRECTION ( 'NONE',  ( -1.000000000000000000, -0.0000000000000000000, -0.0000000000000000000 ) ) ;
#651 =( GEOMETRIC_REPRESENTATION_CONTEXT ( 3 ) GLOBAL_UNCERTAINTY_ASSIGNED_CONTEXT ( ( #269 ) ) GLOBAL_UNIT_ASSIGNED_CONTEXT ( ( #206, #587, #88 ) ) REPRESENTATION_CONTEXT ( 'NONE', 'WORKASPACE' ) );
#652 = ORIENTED_EDGE ( 'NONE', *, *, #720, .F. ) ;
#653 = DIRECTION ( 'NONE',  ( 1.000000000000000000, 0.0000000000000000000, 0.0000000000000000000 ) ) ;
#654 = EDGE_LOOP ( 'NONE', ( #498, #89 ) ) ;
#655 = ORIENTED_EDGE ( 'NONE', *, *, #265, .F. ) ;
#656 = AXIS2_PLACEMENT_3D ( 'NONE', #801, #611, #31 ) ;
#657 = DIRECTION ( 'NONE',  ( 1.000000000000000000, 0.0000000000000000000, 0.0000000000000000000 ) ) ;
#658 = VECTOR ( 'NONE', #705, 1000.000000000000000 ) ;
#659 = DIRECTION ( 'NONE',  ( -0.0000000000000000000, -1.000000000000000000, -0.0000000000000000000 ) ) ;
#660 = ORIENTED_EDGE ( 'NONE', *, *, #235, .T. ) ;
#661 = VERTEX_POINT ( 'NONE', #453 ) ;
#662 = EDGE_CURVE ( 'NONE', #58, #294, #513, .T. ) ;
#663 = ORIENTED_EDGE ( 'NONE', *, *, #39, .F. ) ;
#664 = AXIS2_PLACEMENT_3D ( 'NONE', #51, #555, #177 ) ;
#665 = LINE ( 'NONE', #78, #335 ) ;
#666 = PERSON_AND_ORGANIZATION_ROLE ( 'design_supplier' ) ;
#667 = VECTOR ( 'NONE', #102, 1000.000000000000000 ) ;
#668 = EDGE_CURVE ( 'NONE', #36, #468, #607, .T. ) ;
#669 = PERSON_AND_ORGANIZATION_ROLE ( 'classification_officer' ) ;
#670 = ORIENTED_EDGE ( 'NONE', *, *, #559, .F. ) ;
#671 = CARTESIAN_POINT ( 'NONE',  ( -552.0000000000018190, 19.99999999999993605, -14.69999999999999041 ) ) ;
#672 = CARTESIAN_POINT ( 'NONE',  ( 578.9999999999974989, 0.0000000000000000000, -21.29999999999970939 ) ) ;
#673 = LINE ( 'NONE', #16, #279 ) ;
#674 = CIRCLE ( 'NONE', #735, 3.299999999999969624 ) ;
#675 = CARTESIAN_POINT ( 'NONE',  ( 578.9999999999974989, 0.0000000000000000000, -38.69999999999978968 ) ) ;
#676 = ORIENTED_EDGE ( 'NONE', *, *, #21, .T. ) ;
#677 = CARTESIAN_POINT ( 'NONE',  ( -552.0000000000018190, 19.99999999999993605, -17.99999999999996092 ) ) ;
#678 = AXIS2_PLACEMENT_3D ( 'NONE', #460, #214, #256 ) ;
#679 = ORIENTED_EDGE ( 'NONE', *, *, #296, .T. ) ;
#680 = ORIENTED_EDGE ( 'NONE', *, *, #296, .F. ) ;
#681 = CARTESIAN_POINT ( 'NONE',  ( 578.9999999999974989, 19.99999999999993605, -21.29999999999970939 ) ) ;
#682 = LINE ( 'NONE', #509, #42 ) ;
#683 = CARTESIAN_POINT ( 'NONE',  ( -579.0000000000018190, 0.0000000000000000000, -14.69999999999999041 ) ) ;
#684 = EDGE_CURVE ( 'NONE', #77, #467, #696, .T. ) ;
#685 = CIRCLE ( 'NONE', #190, 3.299999999999969624 ) ;
#686 = CC_DESIGN_PERSON_AND_ORGANIZATION_ASSIGNMENT ( #554, #666, ( #255 ) ) ;
#687 = VECTOR ( 'NONE', #191, 1000.000000000000000 ) ;
#688 = CARTESIAN_POINT ( 'NONE',  ( 649.9999999999998863, 0.0000000000000000000, -350.0000000000000000 ) ) ;
#689 = EDGE_LOOP ( 'NONE', ( #267, #142, #221, #712 ) ) ;
#690 = DIRECTION ( 'NONE',  ( 0.0000000000000000000, 0.0000000000000000000, -1.000000000000000000 ) ) ;
#691 = EDGE_LOOP ( 'NONE', ( #390, #723, #519, #195 ) ) ;
#692 = AXIS2_PLACEMENT_3D ( 'NONE', #246, #10, #745 ) ;
#693 = ORIENTED_EDGE ( 'NONE', *, *, #740, .F. ) ;
#694 = CARTESIAN_POINT ( 'NONE',  ( -650.0000000000001137, 19.99999999999993605, 0.0000000000000000000 ) ) ;
#695 = COORDINATED_UNIVERSAL_TIME_OFFSET ( 1, 0, .AHEAD. ) ;
#696 = LINE ( 'NONE', #391, #228 ) ;
#697 = DIRECTION ( 'NONE',  ( 0.0000000000000000000, -0.0000000000000000000, -1.000000000000000000 ) ) ;
#698 = FACE_BOUND ( 'NONE', #817, .T. ) ;
#699 = AXIS2_PLACEMENT_3D ( 'NONE', #413, #180, #421 ) ;
#700 = DIRECTION ( 'NONE',  ( 0.0000000000000000000, 0.0000000000000000000, -1.000000000000000000 ) ) ;
#701 = ADVANCED_FACE ( 'NONE', ( #620 ), #270, .T. ) ;
#702 = DIRECTION ( 'NONE',  ( -0.0000000000000000000, -0.0000000000000000000, -1.000000000000000000 ) ) ;
#703 = SHAPE_DEFINITION_REPRESENTATION ( #790, #448 ) ;
#704 = ORIENTED_EDGE ( 'NONE', *, *, #487, .F. ) ;
#705 = DIRECTION ( 'NONE',  ( -0.0000000000000000000, -1.000000000000000000, -0.0000000000000000000 ) ) ;
#706 = DIRECTION ( 'NONE',  ( -0.0000000000000000000, -1.000000000000000000, -0.0000000000000000000 ) ) ;
#707 = DIRECTION ( 'NONE',  ( 1.000000000000000000, 0.0000000000000000000, 0.0000000000000000000 ) ) ;
#708 = EDGE_CURVE ( 'NONE', #118, #58, #578, .T. ) ;
#709 = LOCAL_TIME ( 14, 53, 51.00000000000000000, #72 ) ;
#710 = DIRECTION ( 'NONE',  ( -0.0000000000000000000, 0.0000000000000000000, 1.000000000000000000 ) ) ;
#711 = VECTOR ( 'NONE', #605, 1000.000000000000000 ) ;
#712 = ORIENTED_EDGE ( 'NONE', *, *, #307, .T. ) ;
#713 = PLANE ( 'NONE',  #483 ) ;
#714 = AXIS2_PLACEMENT_3D ( 'NONE', #694, #363, #556 ) ;
#715 = COORDINATED_UNIVERSAL_TIME_OFFSET ( 1, 0, .AHEAD. ) ;
#716 = VECTOR ( 'NONE', #650, 1000.000000000000000 ) ;
#717 = VECTOR ( 'NONE', #601, 1000.000000000000000 ) ;
#718 = LINE ( 'NONE', #418, #362 ) ;
#719 = ORIENTED_EDGE ( 'NONE', *, *, #417, .F. ) ;
#720 = EDGE_CURVE ( 'NONE', #661, #15, #673, .T. ) ;
#721 = CC_DESIGN_APPROVAL ( #371, ( #507 ) ) ;
#722 = ORIENTED_EDGE ( 'NONE', *, *, #265, .T. ) ;
#723 = ORIENTED_EDGE ( 'NONE', *, *, #793, .F. ) ;
#724 = APPROVAL_ROLE ( '' ) ;
#725 = DIRECTION ( 'NONE',  ( 0.0000000000000000000, 0.0000000000000000000, -1.000000000000000000 ) ) ;
#726 = AXIS2_PLACEMENT_3D ( 'NONE', #806, #370, #368 ) ;
#727 = PERSON_AND_ORGANIZATION ( #137, #64 ) ;
#728 = DIRECTION ( 'NONE',  ( 1.000000000000000000, 0.0000000000000000000, 0.0000000000000000000 ) ) ;
#729 = FACE_BOUND ( 'NONE', #486, .T. ) ;
#730 = DIRECTION ( 'NONE',  ( 0.0000000000000000000, 0.0000000000000000000, -1.000000000000000000 ) ) ;
#731 = LINE ( 'NONE', #47, #558 ) ;
#732 = CARTESIAN_POINT ( 'NONE',  ( -579.0000000000018190, 0.0000000000000000000, -21.29999999999992966 ) ) ;
#733 = ORIENTED_EDGE ( 'NONE', *, *, #751, .T. ) ;
#734 = CARTESIAN_POINT ( 'NONE',  ( -579.0000000000018190, 0.0000000000000000000, -41.99999999999997868 ) ) ;
#735 = AXIS2_PLACEMENT_3D ( 'NONE', #298, #547, #354 ) ;
#736 = CARTESIAN_POINT ( 'NONE',  ( 578.9999999999974989, 0.0000000000000000000, -17.99999999999973710 ) ) ;
#737 = ADVANCED_FACE ( 'NONE', ( #173 ), #359, .F. ) ;
#738 = CARTESIAN_POINT ( 'NONE',  ( -650.0000000000001137, 0.0000000000000000000, -350.0000000000000000 ) ) ;
#739 = CARTESIAN_POINT ( 'NONE',  ( -650.0000000000001137, 19.99999999999993605, 0.0000000000000000000 ) ) ;
#740 = EDGE_CURVE ( 'NONE', #661, #774, #4, .T. ) ;
#741 = CYLINDRICAL_SURFACE ( 'NONE', #635, 3.299999999999969624 ) ;
#742 = LINE ( 'NONE', #492, #789 ) ;
#743 = DIRECTION ( 'NONE',  ( -0.0000000000000000000, -1.000000000000000000, -0.0000000000000000000 ) ) ;
#744 = ORIENTED_EDGE ( 'NONE', *, *, #397, .T. ) ;
#745 = DIRECTION ( 'NONE',  ( 0.0000000000000000000, 0.0000000000000000000, -1.000000000000000000 ) ) ;
#746 = CARTESIAN_POINT ( 'NONE',  ( -650.0000000000001137, 19.99999999999993605, -350.0000000000000000 ) ) ;
#747 = AXIS2_PLACEMENT_3D ( 'NONE', #74, #144, #349 ) ;
#748 = DIRECTION ( 'NONE',  ( 0.0000000000000000000, 0.0000000000000000000, -1.000000000000000000 ) ) ;
#749 = EDGE_LOOP ( 'NONE', ( #800, #310, #565, #627 ) ) ;
#750 = LOCAL_TIME ( 14, 53, 51.00000000000000000, #715 ) ;
#751 = EDGE_CURVE ( 'NONE', #213, #168, #19, .T. ) ;
#752 = DIRECTION ( 'NONE',  ( 0.0000000000000000000, -0.0000000000000000000, 1.000000000000000000 ) ) ;
#753 = DIRECTION ( 'NONE',  ( 0.0000000000000000000, 0.0000000000000000000, -1.000000000000000000 ) ) ;
#754 = ORIENTED_EDGE ( 'NONE', *, *, #133, .F. ) ;
#755 = CARTESIAN_POINT ( 'NONE',  ( -579.0000000000018190, 19.99999999999993605, -21.29999999999992966 ) ) ;
#756 = ORIENTED_EDGE ( 'NONE', *, *, #307, .F. ) ;
#757 = CC_DESIGN_PERSON_AND_ORGANIZATION_ASSIGNMENT ( #299, #794, ( #639 ) ) ;
#758 = CARTESIAN_POINT ( 'NONE',  ( 578.9999999999974989, 0.0000000000000000000, -17.99999999999973710 ) ) ;
#759 = ORIENTED_EDGE ( 'NONE', *, *, #158, .T. ) ;
#760 = CARTESIAN_POINT ( 'NONE',  ( 551.9999999999976126, 0.0000000000000000000, -17.99999999999973710 ) ) ;
#761 = EDGE_LOOP ( 'NONE', ( #429, #516, #147, #132 ) ) ;
#762 = AXIS2_PLACEMENT_3D ( 'NONE', #824, #130, #497 ) ;
#763 = CARTESIAN_POINT ( 'NONE',  ( -579.0000000000018190, 0.0000000000000000000, -38.70000000000000995 ) ) ;
#764 = DIRECTION ( 'NONE',  ( -0.0000000000000000000, -1.000000000000000000, -0.0000000000000000000 ) ) ;
#765 = EDGE_CURVE ( 'NONE', #101, #563, #682, .T. ) ;
#766 = EDGE_LOOP ( 'NONE', ( #166, #254, #416, #805 ) ) ;
#767 = ORIENTED_EDGE ( 'NONE', *, *, #68, .F. ) ;
#768 = COORDINATED_UNIVERSAL_TIME_OFFSET ( 1, 0, .AHEAD. ) ;
#769 = CIRCLE ( 'NONE', #586, 3.299999999999969624 ) ;
#770 = FACE_OUTER_BOUND ( 'NONE', #232, .T. ) ;
#771 = AXIS2_PLACEMENT_3D ( 'NONE', #677, #171, #97 ) ;
#772 = CARTESIAN_POINT ( 'NONE',  ( -552.0000000000018190, 19.99999999999993605, -21.29999999999992966 ) ) ;
#773 = CIRCLE ( 'NONE', #656, 3.299999999999969624 ) ;
#774 = VERTEX_POINT ( 'NONE', #138 ) ;
#775 = CARTESIAN_POINT ( 'NONE',  ( 578.9999999999974989, 19.99999999999993605, -38.69999999999978968 ) ) ;
#776 = ORIENTED_EDGE ( 'NONE', *, *, #218, .T. ) ;
#777 = AXIS2_PLACEMENT_3D ( 'NONE', #411, #37, #286 ) ;
#778 = DIRECTION ( 'NONE',  ( -0.0000000000000000000, 0.0000000000000000000, 1.000000000000000000 ) ) ;
#779 = DIRECTION ( 'NONE',  ( 0.0000000000000000000, 0.0000000000000000000, -1.000000000000000000 ) ) ;
#780 = DIRECTION ( 'NONE',  ( 0.0000000000000000000, 0.0000000000000000000, -1.000000000000000000 ) ) ;
#781 = FACE_BOUND ( 'NONE', #613, .T. ) ;
#782 = CIRCLE ( 'NONE', #301, 3.299999999999969624 ) ;
#783 = ORIENTED_EDGE ( 'NONE', *, *, #178, .F. ) ;
#784 = CC_DESIGN_APPROVAL ( #154, ( #591 ) ) ;
#785 = EDGE_LOOP ( 'NONE', ( #424, #115, #511, #776 ) ) ;
#786 = AXIS2_PLACEMENT_3D ( 'NONE', #811, #304, #618 ) ;
#787 = COORDINATED_UNIVERSAL_TIME_OFFSET ( 1, 0, .AHEAD. ) ;
#788 = ADVANCED_FACE ( 'NONE', ( #520 ), #713, .F. ) ;
#789 = VECTOR ( 'NONE', #56, 1000.000000000000000 ) ;
#790 = PRODUCT_DEFINITION_SHAPE ( 'NONE', 'NONE',  #591 ) ;
#791 = ORIENTED_EDGE ( 'NONE', *, *, #517, .T. ) ;
#792 = PLANE ( 'NONE',  #358 ) ;
#793 = EDGE_CURVE ( 'NONE', #77, #807, #545, .T. ) ;
#794 = PERSON_AND_ORGANIZATION_ROLE ( 'design_owner' ) ;
#795 = DIRECTION ( 'NONE',  ( 0.0000000000000000000, 0.0000000000000000000, -1.000000000000000000 ) ) ;
#796 = DIRECTION ( 'NONE',  ( -0.0000000000000000000, -1.000000000000000000, -0.0000000000000000000 ) ) ;
#797 = DIRECTION ( 'NONE',  ( -0.0000000000000000000, -1.000000000000000000, -0.0000000000000000000 ) ) ;
#798 = CIRCLE ( 'NONE', #573, 3.299999999999969624 ) ;
#799 = DIRECTION ( 'NONE',  ( 0.0000000000000000000, -1.000000000000000000, 0.0000000000000000000 ) ) ;
#800 = ORIENTED_EDGE ( 'NONE', *, *, #432, .F. ) ;
#801 = CARTESIAN_POINT ( 'NONE',  ( 551.9999999999973852, 19.99999999999993605, -41.99999999999975842 ) ) ;
#802 = AXIS2_PLACEMENT_3D ( 'NONE', #736, #107, #161 ) ;
#803 = ORIENTED_EDGE ( 'NONE', *, *, #382, .F. ) ;
#804 = EDGE_LOOP ( 'NONE', ( #124, #330 ) ) ;
#805 = ORIENTED_EDGE ( 'NONE', *, *, #566, .F. ) ;
#806 = CARTESIAN_POINT ( 'NONE',  ( -579.0000000000018190, 0.0000000000000000000, -41.99999999999997868 ) ) ;
#807 = VERTEX_POINT ( 'NONE', #775 ) ;
#808 = CARTESIAN_POINT ( 'NONE',  ( 551.9999999999976126, 0.0000000000000000000, -17.99999999999973710 ) ) ;
#809 = EDGE_CURVE ( 'NONE', #575, #179, #665, .T. ) ;
#810 = DIRECTION ( 'NONE',  ( 0.0000000000000000000, 0.0000000000000000000, -1.000000000000000000 ) ) ;
#811 = CARTESIAN_POINT ( 'NONE',  ( -552.0000000000018190, 0.0000000000000000000, -17.99999999999996092 ) ) ;
#812 = VECTOR ( 'NONE', #366, 1000.000000000000000 ) ;
#813 = CYLINDRICAL_SURFACE ( 'NONE', #464, 3.299999999999969624 ) ;
#814 = DIRECTION ( 'NONE',  ( 0.0000000000000000000, 0.0000000000000000000, -1.000000000000000000 ) ) ;
#815 = DIRECTION ( 'NONE',  ( -0.0000000000000000000, -1.000000000000000000, -0.0000000000000000000 ) ) ;
#816 = AXIS2_PLACEMENT_3D ( 'NONE', #324, #251, #779 ) ;
#817 = EDGE_LOOP ( 'NONE', ( #576, #287 ) ) ;
#818 = ORIENTED_EDGE ( 'NONE', *, *, #474, .F. ) ;
#819 = CARTESIAN_POINT ( 'NONE',  ( 551.9999999999976126, 0.0000000000000000000, -21.29999999999970939 ) ) ;
#820 = EDGE_LOOP ( 'NONE', ( #211, #644 ) ) ;
#821 = ORIENTED_EDGE ( 'NONE', *, *, #474, .T. ) ;
#822 = CARTESIAN_POINT ( 'NONE',  ( -579.0000000000018190, 0.0000000000000000000, -45.29999999999995453 ) ) ;
#823 = AXIS2_PLACEMENT_3D ( 'NONE', #760, #505, #128 ) ;
#824 = CARTESIAN_POINT ( 'NONE',  ( 578.9999999999974989, 0.0000000000000000000, -41.99999999999975842 ) ) ;
#825 = CIRCLE ( 'NONE', #395, 3.299999999999969624 ) ;
#826 = CIRCLE ( 'NONE', #501, 3.299999999999969624 ) ;
#827 = CARTESIAN_POINT ( 'NONE',  ( 649.9999999999998863, 0.0000000000000000000, 0.0000000000000000000 ) ) ;
#828 = ORIENTED_EDGE ( 'NONE', *, *, #252, .T. ) ;
#829 = EDGE_CURVE ( 'NONE', #87, #101, #316, .T. ) ;
ENDSEC;
END-ISO-10303-21;
